<?xml version="1.0" encoding="UTF-8" standalone="no"?>
<svg
   width="500"
   height="500"
   version="1.1"
   desc="Created with imagetracer.js version 1.2.6"
   id="svg29"
   sodipodi:docname="FaviconSeControla.svg"
   inkscape:version="1.3.2 (091e20e, 2023-11-25, custom)"
   xmlns:inkscape="http://www.inkscape.org/namespaces/inkscape"
   xmlns:sodipodi="http://sodipodi.sourceforge.net/DTD/sodipodi-0.dtd"
   xmlns="http://www.w3.org/2000/svg"
   xmlns:svg="http://www.w3.org/2000/svg">
  <defs
     id="defs29" />
  <sodipodi:namedview
     id="namedview29"
     pagecolor="#ffffff"
     bordercolor="#000000"
     borderopacity="0.25"
     inkscape:showpageshadow="2"
     inkscape:pageopacity="0.0"
     inkscape:pagecheckerboard="0"
     inkscape:deskcolor="#d1d1d1"
     inkscape:zoom="0.43359375"
     inkscape:cx="768"
     inkscape:cy="510.84685"
     inkscape:window-width="1366"
     inkscape:window-height="715"
     inkscape:window-x="-8"
     inkscape:window-y="-8"
     inkscape:window-maximized="1"
     inkscape:current-layer="svg29" />
  <path
     fill="#000000"
     stroke="#000000"
     stroke-width="1"
     opacity="0"
     d="M 0,0 H 1536 V 1024 H 0 Z m 416,256 -1,1 h -11 l -7,2 h -5 l -17,6 -14,7 -20,14 -17,21 -9,16 -4,13 q -4,1 -1,3 l -3,8 -1,13 h -54 q -2,2 -6,1 l -15,5 -16,10 q -12,9 -19,23 l -4,9 -4,17 v 227 l 4,16 9,16 q 14,19 43,25 h 274 q 21,-4 34,-16 l 13,-15 8,-19 2,-11 -1,-1 v -29 l 11,-4 7,-8 4,-13 v -43 l -5,-14 q -5,-8 -15,-9 l -2,-1 v -67 l -5,-18 -8,-13 q -10,-15 -28,-21 -3,1 -2,-1 3,-2 1,-3 4,-7 4,-17 v -2 l 1,-2 v -22 l -3,-17 q -7,-26 -22,-43 1,-3 -1,-2 l -2,-2 q -17,-20 -41,-31 l -23,-7 -15,-1 -1,-1 z m 250,204 -14,4 -9,6 q -10,8 -13,22 v 16 l 5,11 15,12 24,9 11,6 q 4,3 5,9 1,5 -2,8 l -9,5 q -12,2 -17,-3 l -6,-6 -2,-10 -3,-1 -2,1 q -11,-1 -18,1 l -3,4 q 0,15 7,23 10,12 29,15 h 18 l 11,-3 10,-6 8,-9 5,-16 q 1,-19 -8,-28 l -10,-9 q -11,-7 -25,-10 l -9,-5 -6,-7 q -1,-6 2,-8 3,-5 9,-6 10,-1 15,3 5,5 6,14 h 22 l 3,-3 v -8 l -2,-7 -9,-15 -16,-8 -5,-1 z m 186,0 q -14,2 -22,10 -12,8 -17,23 l -5,19 v 11 l -1,1 1,19 3,14 q 3,11 10,19 7,7 18,12 l 18,4 q 22,1 34,-10 l 10,-13 3,-10 v -6 l -2,-3 -6,-2 -16,-1 -7,15 -6,4 -5,1 h -4 l -8,-3 q -7,-5 -10,-13 l -2,-8 v -13 l -1,-1 1,-18 3,-11 4,-7 q 4,-6 11,-8 12,-1 17,4 l 4,8 q -1,7 3,10 h 10 l 1,-1 12,-1 2,-3 -2,-14 -5,-10 q -7,-11 -20,-16 l -7,-2 z m 435,0 -5,5 v 120 l 4,4 h 20 l 2,-2 V 465 l -1,-2 -3,-3 z m -191,11 -2,1 -3,4 -1,5 v 15 h -8 l -3,3 v 15 l 3,2 h 8 v 45 l 1,1 1,13 4,8 q 5,6 16,8 13,2 21,-3 l 3,-4 v -14 l -2,-4 -6,2 h -6 q -5,-3 -6,-8 v -44 h 17 l 2,-1 1,-3 q 2,-12 -3,-16 h -17 v -21 l -3,-4 z m -337,23 -12,3 -10,6 -6,6 -6,10 -4,18 1,20 7,18 13,11 9,4 12,1 1,1 10,-1 15,-7 q 8,-5 9,-16 l -2,-3 -14,-4 q -6,1 -8,6 l -7,3 q -8,1 -11,-2 -8,-5 -8,-17 h 50 l 2,-2 v -21 l -1,-5 -4,-10 -7,-10 -12,-7 -9,-2 z m 189,0 -10,2 -11,6 q -10,7 -14,19 l -3,11 v 9 l -1,1 2,20 8,16 q 8,10 23,13 23,3 34,-7 l 9,-10 4,-8 3,-12 v -21 q -2,-2 -1,-6 -3,-13 -11,-21 -10,-12 -32,-12 z m 97,0 -8,2 -10,6 -3,4 -1,-7 -2,-3 h -17 l -4,4 v 86 l 1,2 3,1 h 20 l 2,-3 v -56 l 2,-6 8,-6 8,1 q 4,3 5,10 v 57 l 4,3 h 19 l 3,-4 v -64 l -2,-10 -6,-9 q -7,-9 -22,-8 z m 139,0 -9,3 -8,9 q 0,-7 -3,-10 h -17 l -3,1 -1,3 v 86 l 1,2 3,1 h 19 l 2,-1 1,-2 v -52 l 3,-8 q 4,-7 18,-5 l 2,-3 3,-11 v -9 l -2,-3 z m 47,0 -9,2 -11,6 q -13,10 -17,30 v 23 l 3,12 5,9 q 8,11 25,15 h 16 q 9,-2 16,-7 12,-10 16,-29 3,-32 -10,-47 -6,-8 -16,-12 z m 126,0 -15,3 -9,5 -9,11 -2,9 4,3 19,1 q 3,-2 3,-6 l 7,-5 7,1 q 5,2 4,11 v 2 l 1,4 -24,1 -15,7 q -9,5 -11,17 v 13 l 7,13 15,7 16,-1 q 8,-3 13,-10 l 2,8 3,1 h 17 l 3,-3 v -28 l -1,-3 1,-3 v -11 l -1,-1 1,-4 -2,-18 -6,-12 -11,-9 -7,-2 h -5 -2 z"
     id="path1" />
  <g
     id="g30"
     transform="translate(-145.2973,-230.63063)">
    <path
       fill="#014125"
       stroke="#014125"
       stroke-width="1"
       opacity="0.988235"
       d="m 415.5,256 h 13 l 1,1 15,1 23,7 q 24.7,11.3 41.5,30.5 17.1,18.9 25,47 l 3,17 v 21 l -1,1 -1,13 -4,12.5 q 19.1,5.7 30,20.5 l 8,13 5,18 v 67 l 1.5,1.5 q 11,1 15.5,8.5 l 5,14 v 43 l -4,13 -7.5,8.5 -10.5,4 v 35.5 l -1,5 q -6,22 -21.5,34.5 -12.9,12.1 -34,16 h -274 Q 215,703.5 201,683.5 l -9,-16 -4,-16 v -227 l 4,-17 4,-9 q 7.2,-13.3 18.5,-22.5 l 16,-10 15,-5 q 4.7,1.2 6,-1 H 306 l 2,-17.5 9,-24 q 11.3,-21.7 29.5,-36.5 14,-12 33,-19 l 12,-4 h 5 l 7,-2 h 11 z m -3.5,18 -17,3 -14,5 -21,13 q -17,13 -27,33 l -7,18 -3,16 v 19 l 3,17 q 6,21 19,35 h 68 v 0 -13 q -12,0 -19,-6 -7,-4 -10,-12 -1,-10 6,-13 l 9,1 3,6 6,5 4,2 q 5,-1 7,1 l 15,-1 5,-3 3,-5 q 1,-6 -2,-8 l -7,-5 -26,-7 -11,-6 q -7,-5 -10,-13 -2,-15 4,-21 7,-11 21,-13 -2,-8 2,-12 l 7,-4 5,1 q 7,3 5,15 11,1 18,6 6,4 9,13 l -1,8 -5,4 -9,-1 -3,-2 -2,-6 -6,-5 q -5,1 -6,-1 h -9 l -7,2 -5,6 1,7 8,5 26,7 10,5 q 8,6 11,18 v 10 l -5,11 -10,8 -13,3 -2,2 v 11 h 1 65 q 9,-10 15,-24 l 4,-11 3,-16 v -22 l -3,-15 q -7,-22 -20,-37 -14,-17 -34,-26 l -14,-5 -10,-2 z m -161,104 -8,2 -16,9 q -9,6 -13,17 v 5 l 6,11 q 7,8 21,11 h 80 l -5,-8 -7,-19 -4,-23 q 0,-5 0,-5 z m 272,46 -4,9 15,1 12,5 2,2 -4,-6 q -8,-9 -21,-11 z m -316,7 -1,43 v 2 100 l 1,1 -1,24 v 2 30 l 1,1 -1,2 1,2 q -1,11 1,19 3,12 11,20 10,10 26,14 h 196 2 21 l 2,1 h 2 l 11,-1 h 2 18 l 1,1 1,-1 q 12,2 20,-1 l 16,-8 q 12,-9 17,-25 l 1,-4 v -34 h -31 q -12,-2 -19,-7 -16,-10 -20,-32 v -11 l 2,-10 8,-15 q 7,-9 18,-14 l 10,-3 h 18 l 1,-1 h 10 l 1,1 2,-1 -1,-2 1,-4 -1,-5 1,-3 v -25 q -3,-2 -1,-8 l -7,-14 q -8,-11 -22,-14 h -131 -2 q -7,2 -8,-1 H 239 l -12,-3 -13,-8 z m 320,113 -14,6 q -8,5 -10,16 -1,11 1,19 l 6,9 13,7 h 49 l 2,-1 3,-4 v -47 l -1,-2 -3,-3 z"
       id="path6" />
    <path
       fill="#014125"
       stroke="#014125"
       stroke-width="1"
       opacity="0.988235"
       d="m 297.5,422 2,1 1,-1 h 13 l 4.5,8.5 -6.5,1.5 -7,-2 -1.5,0.5 v -2 l -0.5,-1.5 -3,3 -1,-1 -1.5,-0.5 1.5,-2.5 1,3 0.5,-3 4,-2.5 -2.5,-0.5 -1,1 h -29 l -1,1 q -7.5,-1.5 -11,1 l -2,-1 h -2 l -18,2 -1,1 -0.5,-2 q 7.6,0.9 12.5,-2 l 48,-1 z"
       id="path7" />
    <path
       fill="#014125"
       stroke="#014125"
       stroke-width="1"
       opacity="0.988235"
       d="m 258.5,427 1.5,3.5 h -1 l -0.5,-1.5 -2.5,1.5 z"
       id="path8" />
    <path
       fill="#014125"
       stroke="#014125"
       stroke-width="1"
       opacity="0.988235"
       d="m 233.5,428 8.5,2.5 -4.5,0.5 q -4,-0.5 -4,-3 z"
       id="path9" />
    <path
       fill="#014125"
       stroke="#014125"
       stroke-width="1"
       opacity="0.988235"
       d="m 266.5,428 1,2 q -2.8,0.7 -1,-2 z"
       id="path10" />
    <path
       fill="#014125"
       stroke="#014125"
       stroke-width="1"
       opacity="0.988235"
       d="m 325.5,508 h 7 l 8,2 12.5,10.5 q 5.3,6.2 5,18 l -2,4.5 -7.5,2 -6.5,-3.5 -2,-10 -4.5,-5.5 -9,-1 -4.5,3.5 q -3.7,4.3 -4,12 l -3.5,3.5 -4,1 -4,-1 -4.5,-4.5 q -0.1,-19.1 11.5,-26.5 z"
       id="path21" />
    <path
       fill="#014125"
       stroke="#014125"
       stroke-width="1"
       opacity="0.988235"
       d="m 441.5,508 q 17.4,0.1 24.5,10.5 6.2,7.3 7,20 l -4.5,5.5 q -10.2,2.3 -12.5,-3.5 l -2,-10 -5.5,-5.5 q -9.7,-1.7 -12.5,3.5 -3.5,4.5 -4,12 l -3.5,3.5 q -8.7,1.7 -11.5,-2.5 l -1,-9 q 2.3,-11.2 9.5,-17.5 l 8,-5 z"
       id="path22" />
    <path
       fill="#014125"
       stroke="#014125"
       stroke-width="1"
       opacity="0.988235"
       d="m 527.5,558 h 8 l 8.5,5.5 3,6 v 8 l -5.5,7.5 q -3.5,3.5 -11,3 -8.1,-1.4 -11.5,-7.5 -2.7,-3.3 -2,-10 1.5,-6.9 6.5,-10.5 z"
       id="path23" />
    <path
       fill="#014125"
       stroke="#014125"
       stroke-width="1"
       opacity="0.988235"
       d="m 338.5,575 q 7.9,-0.9 9.5,4.5 2.8,12.3 10.5,19.5 l 16,9 q 8.3,2.7 21,1 l 10,-3 11.5,-8 q 6.3,-7.1 9,-18.5 l 3.5,-3.5 6,-1 5.5,3.5 1,9 q -5.1,17.9 -18.5,27.5 -9,7 -22,10 l -5,1 h -20 q -25,-4 -36.5,-21.5 -7.3,-8.2 -8,-23 l 2,-4.5 z"
       id="path24" />
    <path
       fill="rgb(88,177,70)"
       stroke="#58b146"
       stroke-width="1"
       opacity="0.996078"
       d="m 411.5,274 25,1 10,2 14,5 q 20.8,9.3 34.5,25.5 13.2,15.3 20,37 l 3,15 v 22 l -3,16 -4,11 q -5.9,14.1 -15.5,24.5 h -65 l -0.5,-0.5 v -11 l 1.5,-1.5 13,-3 10.5,-8.5 5,-11 v -10 Q 457.4,375.6 448.5,370 l -10,-5 -26,-7 -7.5,-5.5 -1,-7 4.5,-5.5 7,-2 h 9 q 1.3,2.3 6,1 l 6.5,4.5 2,6 2.5,2.5 9,1 5.5,-4.5 1,-8 q -2.9,-8.1 -9.5,-12.5 -6.9,-5.3 -17.5,-6 2.1,-11.7 -5.5,-15 l -5,-1 -6.5,3.5 q -3.5,4.2 -2,12.5 -14.5,1.8 -21,12.5 -5.8,6.7 -4,21 2.8,8.7 9.5,13.5 l 11,6 26,7 7.5,4.5 q 2.7,2.3 2,8 l -3.5,5.5 -5,3 -15,1 q -1.5,-2.5 -7,-1 l -4,-2 -5.5,-5.5 -3.5,-5.5 -9,-1 q -6.2,2.8 -5.5,12.5 2.9,8.1 9.5,12.5 7.6,5.8 19.5,6 v 12.5 l -0.5,0.5 h -68 Q 331.9,418.6 326,397.5 l -3,-17 v -19 l 3,-16 7,-18 q 10.1,-19.4 26.5,-32.5 l 21,-13 14,-5 z"
       id="path25"
       style="fill:#ffff00" />
    <path
       fill="#58b146"
       stroke="#58b146"
       stroke-width="1"
       opacity="0.996078"
       d="m 250.5,378 h 54 q 1,0 0.5,4.5 l 4,23 7,19 5,8 -80.5,0.5 Q 227.3,430.2 220,421.5 l -6,-11 v -5 q 4.4,-10.1 12.5,-16.5 l 16,-9 z m 47.5,44 -1,1 -48,1 q -5,3 -13,2 l 1,2 1,-1 18,-2 h 2 l 2,1 q 3,-2 11,-1 l 1,-1 h 29 l 3,-1 -2,3 q -3,-1 -2,3 l 3,-2 v 2 l 3,2 q 4,-1 6,1 l 6,-1 -4,-9 h -13 l -1,1 z m 1,4 -2,3 h 2 z m -40,1 -2,3 2,-1 z m 8,1 q -2,3 1,2 z m -32,1 v 1 l 3,1 h 4 z"
       id="path26" />
    <path
       fill="#58b146"
       stroke="#58b146"
       stroke-width="1"
       opacity="0.996078"
       d="m 523,424 q 13.4,1.9 21,10.5 l 4,6 -2.5,-1.5 -12,-5 -14.5,-1.5 z"
       id="path27" />
    <path
       fill="#58b146"
       stroke="#58b146"
       stroke-width="1"
       opacity="0.996078"
       d="m 206.5,431 7,8 13,8 12,3 h 145 q 1.8,2.8 8,1 h 2 131 q 14.8,3.3 22.5,13.5 l 7,14 q -1.7,6.3 1,8 v 25 l -1,3 1,5 -1,4 1,2 -2.5,1.5 -1,-1 h -10 l -1,1 h -18 l -10,3 q -10.7,4.8 -17.5,13.5 l -8,15 -2,10 v 11 q 3.7,22.3 19.5,32.5 8,5 19,7 H 555 v 33.5 l -1,4 q -5.2,16.3 -17.5,25.5 l -16,8 q -7.9,2.6 -20,1 l -1,1 -1,-1 h -18 -2 l -11,1 h -2 l -2,-1 h -21 -2 -196 q -16,-4 -25.5,-14.5 -7.9,-7.6 -11,-20 -2.5,-7.5 -1,-19 l -1,-2 1,-2 -1,-1 v -30 -2 l 1,-24 -1,-1 v -100 -2 z m 119.5,77 -12,5 q -12,7 -12,27 l 5,4 4,1 4,-1 3,-3 q 0,-8 4,-12 l 5,-4 9,1 4,6 2,10 7,3 7,-2 2,-4 q 0,-12 -5,-18 l -12,-11 -8,-2 z m 116,0 -8,2 -8,5 q -8,6 -10,18 l 1,9 q 3,4 12,2 l 3,-3 q 0,-8 4,-12 3,-6 13,-4 l 5,6 2,10 q 2,5 13,3 l 4,-5 q -1,-13 -7,-20 -7,-11 -24,-11 z m -103,67 -5,2 -2,5 q 1,14 8,23 12,17 37,21 h 20 l 5,-1 q 13,-3 22,-10 13,-10 18,-27 l -1,-9 -5,-4 -6,1 -4,4 q -3,11 -9,18 l -11,8 -10,3 q -13,2 -21,-1 l -16,-9 q -8,-7 -11,-19 -2,-6 -9,-5 z"
       id="path28" />
    <path
       fill="#58b146"
       stroke="#58b146"
       stroke-width="1"
       opacity="0.996078"
       d="m 526.5,544 h 46 l 3.5,2.5 1,2 v 47 l -3.5,4.5 -2,1 h -49 l -12.5,-7 -6,-9.5 q -2.5,-7.5 -1,-19 2.4,-10.1 9.5,-15.5 z m 1.5,14 -4,2 q -5,4 -7,11 -1,6 2,10 3,6 12,7 7,1 11,-3 l 5,-7 v -8 l -3,-6 -8,-6 z"
       id="path29" />
  </g>
</svg>
