<svg width="1536" height="1024" version="1.1" xmlns="http://www.w3.org/2000/svg" desc="Created with imagetracer.js version 1.2.6" ><path fill="rgb(0,0,0)" stroke="rgb(0,0,0)" stroke-width="1" opacity="0" d="M 0 0 L 1536 0 L 1536 1024 L 0 1024 L 0 0 Z M 416 256 L 415 257 L 404 257 L 397 259 L 392 259 L 375 265 L 361 272 L 341 286 L 324 307 L 315 323 L 311 336 Q 307 337 310 339 L 307 347 L 306 360 L 252 360 Q 250 362 246 361 L 231 366 L 215 376 Q 203 385 196 399 L 192 408 L 188 425 L 188 652 L 192 668 L 201 684 Q 215 703 244 709 L 518 709 Q 539 705 552 693 L 565 678 L 573 659 L 575 648 L 574 647 L 574 618 L 585 614 L 592 606 L 596 593 L 596 550 L 591 536 Q 586 528 576 527 L 574 526 L 574 459 L 569 441 L 561 428 Q 551 413 533 407 Q 530 408 531 406 Q 534 404 532 403 Q 536 396 536 386 L 536 384 L 537 382 L 537 360 L 534 343 Q 527 317 512 300 Q 513 297 511 298 L 509 296 Q 492 276 468 265 L 445 258 L 430 257 L 429 256 L 416 256 Z M 666 460 L 652 464 L 643 470 Q 633 478 630 492 L 630 508 L 635 519 L 650 531 L 674 540 L 685 546 Q 689 549 690 555 Q 691 560 688 563 L 679 568 Q 667 570 662 565 L 656 559 L 654 549 L 651 548 L 649 549 Q 638 548 631 550 L 628 554 Q 628 569 635 577 Q 645 589 664 592 L 682 592 L 693 589 L 703 583 L 711 574 L 716 558 Q 717 539 708 530 L 698 521 Q 687 514 673 511 L 664 506 L 658 499 Q 657 493 660 491 Q 663 486 669 485 Q 679 484 684 488 Q 689 493 690 502 L 712 502 L 715 499 L 715 491 L 713 484 L 704 469 L 688 461 L 683 460 L 666 460 Z M 852 460 Q 838 462 830 470 Q 818 478 813 493 L 808 512 L 808 523 L 807 524 L 808 543 L 811 557 Q 814 568 821 576 Q 828 583 839 588 L 857 592 Q 879 593 891 582 L 901 569 L 904 559 L 904 553 L 902 550 L 896 548 L 880 547 L 873 562 L 867 566 L 862 567 L 858 567 L 850 564 Q 843 559 840 551 L 838 543 L 838 530 L 837 529 L 838 511 L 841 500 L 845 493 Q 849 487 856 485 Q 868 484 873 489 L 877 497 Q 876 504 880 507 L 890 507 L 891 506 L 903 505 L 905 502 L 903 488 L 898 478 Q 891 467 878 462 L 871 460 L 852 460 Z M 1287 460 L 1282 465 L 1282 585 L 1286 589 L 1306 589 L 1308 587 L 1308 465 L 1307 463 L 1304 460 L 1287 460 Z M 1096 471 L 1094 472 L 1091 476 L 1090 481 L 1090 496 L 1082 496 L 1079 499 L 1079 514 L 1082 516 L 1090 516 L 1090 561 L 1091 562 L 1092 575 L 1096 583 Q 1101 589 1112 591 Q 1125 593 1133 588 L 1136 584 L 1136 570 L 1134 566 L 1128 568 L 1122 568 Q 1117 565 1116 560 L 1116 516 L 1133 516 L 1135 515 L 1136 512 Q 1138 500 1133 496 L 1116 496 L 1116 475 L 1113 471 L 1096 471 Z M 759 494 L 747 497 L 737 503 L 731 509 L 725 519 L 721 537 L 722 557 L 729 575 L 742 586 L 751 590 L 763 591 L 764 592 L 774 591 L 789 584 Q 797 579 798 568 L 796 565 L 782 561 Q 776 562 774 567 L 767 570 Q 759 571 756 568 Q 748 563 748 551 L 798 551 L 800 549 L 800 528 L 799 523 L 795 513 L 788 503 L 776 496 L 767 494 L 759 494 Z M 948 494 L 938 496 L 927 502 Q 917 509 913 521 L 910 532 L 910 541 L 909 542 L 911 562 L 919 578 Q 927 588 942 591 Q 965 594 976 584 L 985 574 L 989 566 L 992 554 L 992 533 Q 990 531 991 527 Q 988 514 980 506 Q 970 494 948 494 Z M 1045 494 L 1037 496 L 1027 502 L 1024 506 L 1023 499 L 1021 496 L 1004 496 L 1000 500 L 1000 586 L 1001 588 L 1004 589 L 1024 589 L 1026 586 L 1026 530 L 1028 524 L 1036 518 L 1044 519 Q 1048 522 1049 529 L 1049 586 L 1053 589 L 1072 589 L 1075 585 L 1075 521 L 1073 511 L 1067 502 Q 1060 493 1045 494 Z M 1184 494 L 1175 497 L 1167 506 Q 1167 499 1164 496 L 1147 496 L 1144 497 L 1143 500 L 1143 586 L 1144 588 L 1147 589 L 1166 589 L 1168 588 L 1169 586 L 1169 534 L 1172 526 Q 1176 519 1190 521 L 1192 518 L 1195 507 L 1195 498 L 1193 495 L 1184 494 Z M 1231 494 L 1222 496 L 1211 502 Q 1198 512 1194 532 L 1194 555 L 1197 567 L 1202 576 Q 1210 587 1227 591 L 1243 591 Q 1252 589 1259 584 Q 1271 574 1275 555 Q 1278 523 1265 508 Q 1259 500 1249 496 L 1231 494 Z M 1357 494 L 1342 497 L 1333 502 L 1324 513 L 1322 522 L 1326 525 L 1345 526 Q 1348 524 1348 520 L 1355 515 L 1362 516 Q 1367 518 1366 527 L 1366 529 L 1367 533 L 1343 534 L 1328 541 Q 1319 546 1317 558 L 1317 571 L 1324 584 L 1339 591 L 1355 590 Q 1363 587 1368 580 L 1370 588 L 1373 589 L 1390 589 L 1393 586 L 1393 558 L 1392 555 L 1393 552 L 1393 541 L 1392 540 L 1393 536 L 1391 518 L 1385 506 L 1374 497 L 1367 495 L 1362 495 L 1360 495 L 1357 494 Z " /><path fill="rgb(0,0,0)" stroke="rgb(0,0,0)" stroke-width="1" opacity="0" d="M 759.5 515 Q 770.6 513.4 773 520.5 Q 776 525.8 775 534 L 748.5 534 Q 747.5 534 748 529.5 L 750 522.5 L 754.5 517 L 759.5 515 Z " /><path fill="rgb(0,0,0)" stroke="rgb(0,0,0)" stroke-width="1" opacity="0" d="M 947.5 517 Q 957.9 515.6 961 521.5 L 966 533.5 L 966 553.5 L 963 562.5 L 957.5 568 L 947.5 569 L 940 564.5 L 936 554.5 L 935 538.5 L 937 527.5 L 941 520 L 947.5 517 Z " /><path fill="rgb(0,0,0)" stroke="rgb(0,0,0)" stroke-width="1" opacity="0" d="M 1230.5 517 Q 1240.6 515.4 1244 520.5 L 1249 530.5 L 1250 550.5 L 1248 559.5 L 1242.5 567 Q 1238.5 570 1230.5 569 L 1224 564.5 L 1220 556.5 L 1219 534.5 L 1221 526.5 L 1226.5 519 L 1230.5 517 Z " /><path fill="rgb(0,0,0)" stroke="rgb(0,0,0)" stroke-width="1" opacity="0" d="M 1358.5 548 L 1365.5 548 L 1366 549.5 Q 1368.5 551 1367 556.5 L 1366 561.5 L 1361.5 568 Q 1358 571.5 1350.5 571 L 1343 565.5 L 1342 559.5 L 1343 555.5 L 1347.5 551 L 1358.5 548 Z " /><path fill="rgb(1,65,37)" stroke="rgb(1,65,37)" stroke-width="1" opacity="0.9882352941176471" d="M 415.5 256 L 428.5 256 L 429.5 257 L 444.5 258 L 467.5 265 Q 492.2 276.3 509 295.5 Q 526.1 314.4 534 342.5 L 537 359.5 L 537 380.5 L 536 381.5 L 535 394.5 L 531 407 Q 550.1 412.7 561 427.5 L 569 440.5 L 574 458.5 L 574 525.5 L 575.5 527 Q 586.5 528 591 535.5 L 596 549.5 L 596 592.5 L 592 605.5 L 584.5 614 L 574 618 L 574 653.5 L 573 658.5 Q 567 680.5 551.5 693 Q 538.6 705.1 517.5 709 L 243.5 709 Q 215 703.5 201 683.5 L 192 667.5 L 188 651.5 L 188 424.5 L 192 407.5 L 196 398.5 Q 203.2 385.2 214.5 376 L 230.5 366 L 245.5 361 Q 250.2 362.2 251.5 360 L 306 360 L 308 342.5 L 317 318.5 Q 328.3 296.8 346.5 282 Q 360.5 270 379.5 263 L 391.5 259 L 396.5 259 L 403.5 257 L 414.5 257 L 415.5 256 Z M 412 274 L 395 277 L 381 282 L 360 295 Q 343 308 333 328 L 326 346 L 323 362 L 323 381 L 326 398 Q 332 419 345 433 L 413 433 L 413 433 L 413 420 Q 401 420 394 414 Q 387 410 384 402 Q 383 392 390 389 L 399 390 L 402 396 L 408 401 L 412 403 Q 417 402 419 404 L 434 403 L 439 400 L 442 395 Q 443 389 440 387 L 433 382 L 407 375 L 396 369 Q 389 364 386 356 Q 384 341 390 335 Q 397 324 411 322 Q 409 314 413 310 L 420 306 L 425 307 Q 432 310 430 322 Q 441 323 448 328 Q 454 332 457 341 L 456 349 L 451 353 L 442 352 L 439 350 L 437 344 L 431 339 Q 426 340 425 338 L 416 338 L 409 340 L 404 346 L 405 353 L 413 358 L 439 365 L 449 370 Q 457 376 460 388 L 460 398 L 455 409 L 445 417 L 432 420 L 430 422 L 430 433 L 431 433 L 496 433 Q 505 423 511 409 L 515 398 L 518 382 L 518 360 L 515 345 Q 508 323 495 308 Q 481 291 461 282 L 447 277 L 437 275 L 412 274 Z M 251 378 L 243 380 L 227 389 Q 218 395 214 406 L 214 411 L 220 422 Q 227 430 241 433 L 321 433 L 316 425 L 309 406 L 305 383 Q 305 378 305 378 L 251 378 Z M 523 424 L 519 433 L 534 434 L 546 439 L 548 441 L 544 435 Q 536 426 523 424 Z M 207 431 L 206 474 L 206 476 L 206 576 L 207 577 L 206 601 L 206 603 L 206 633 L 207 634 L 206 636 L 207 638 Q 206 649 208 657 Q 211 669 219 677 Q 229 687 245 691 L 441 691 L 443 691 L 464 691 L 466 692 L 468 692 L 479 691 L 481 691 L 499 691 L 500 692 L 501 691 Q 513 693 521 690 L 537 682 Q 549 673 554 657 L 555 653 L 555 619 L 524 619 Q 512 617 505 612 Q 489 602 485 580 L 485 569 L 487 559 L 495 544 Q 502 535 513 530 L 523 527 L 541 527 L 542 526 L 552 526 L 553 527 L 555 526 L 554 524 L 555 520 L 554 515 L 555 512 L 555 487 Q 552 485 554 479 L 547 465 Q 539 454 525 451 L 394 451 L 392 451 Q 385 453 384 450 L 239 450 L 227 447 L 214 439 L 207 431 Z M 527 544 L 513 550 Q 505 555 503 566 Q 502 577 504 585 L 510 594 L 523 601 L 572 601 L 574 600 L 577 596 L 577 549 L 576 547 L 573 544 L 527 544 Z " /><path fill="rgb(1,65,37)" stroke="rgb(1,65,37)" stroke-width="1" opacity="0.9882352941176471" d="M 297.5 422 L 299.5 423 L 300.5 422 L 313.5 422 L 318 430.5 L 311.5 432 L 304.5 430 L 303 430.5 L 303 428.5 L 302.5 427 L 299.5 430 L 298.5 429 L 297 428.5 L 298.5 426 L 299.5 429 L 300 426 L 304 423.5 L 301.5 423 L 300.5 424 L 271.5 424 L 270.5 425 Q 263 423.5 259.5 426 L 257.5 425 L 255.5 425 L 237.5 427 L 236.5 428 L 236 426 Q 243.6 426.9 248.5 424 L 296.5 423 L 297.5 422 Z " /><path fill="rgb(1,65,37)" stroke="rgb(1,65,37)" stroke-width="1" opacity="0.9882352941176471" d="M 258.5 427 L 260 430.5 L 259 430.5 L 258.5 429 L 256 430.5 L 258.5 427 Z " /><path fill="rgb(1,65,37)" stroke="rgb(1,65,37)" stroke-width="1" opacity="0.9882352941176471" d="M 233.5 428 L 242 430.5 L 237.5 431 Q 233.5 430.5 233.5 428 Z " /><path fill="rgb(1,65,37)" stroke="rgb(1,65,37)" stroke-width="1" opacity="0.9882352941176471" d="M 266.5 428 L 267.5 430 Q 264.7 430.7 266.5 428 Z " /><path fill="rgb(1,65,37)" stroke="rgb(1,65,37)" stroke-width="1" opacity="0.9882352941176471" d="M 665.5 460 L 682.5 460 L 687.5 461 L 704 469 L 713 483.5 L 715 490.5 L 715 498.5 L 711.5 502 L 690 502 Q 688.9 493.3 683.5 488 Q 679 483.5 668.5 485 Q 662.8 486.3 660 490.5 Q 657.3 492.8 658 498.5 L 663.5 506 L 672.5 511 Q 686.5 514.5 697.5 521 L 708 529.5 Q 716.8 538.7 716 557.5 L 711 573.5 L 702.5 583 L 692.5 589 L 681.5 592 L 663.5 592 Q 644.8 588.7 635 576.5 Q 627.8 568.8 628 553.5 L 630.5 550 Q 637.6 547.6 648.5 549 L 650.5 548 L 654 549 L 656 558.5 L 661.5 565 Q 667 569.5 678.5 568 L 688 562.5 Q 690.7 560.2 690 554.5 Q 688.8 548.8 684.5 546 L 673.5 540 L 649.5 531 L 635 518.5 L 630 507.5 L 630 491.5 Q 633 477.5 642.5 470 L 651.5 464 L 665.5 460 Z " /><path fill="rgb(1,65,37)" stroke="rgb(1,65,37)" stroke-width="1" opacity="0.9882352941176471" d="M 851.5 460 L 870.5 460 L 877.5 462 Q 890.8 466.8 898 477.5 L 903 487.5 L 905 501.5 L 902.5 505 L 890.5 506 L 889.5 507 L 879.5 507 Q 875.9 504.1 877 496.5 L 872.5 489 Q 867.5 483.5 855.5 485 Q 848.8 487.3 845 492.5 L 841 499.5 L 838 510.5 L 837 528.5 L 838 529.5 L 838 542.5 L 840 550.5 Q 842.8 559.2 849.5 564 L 857.5 567 L 861.5 567 L 866.5 566 L 873 562 L 879.5 547 L 895.5 548 L 901.5 550 L 904 552.5 L 904 558.5 L 901 568.5 L 890.5 582 Q 879.1 592.6 856.5 592 L 838.5 588 Q 828.1 583.4 821 575.5 Q 814.3 567.7 811 556.5 L 808 542.5 L 807 523.5 L 808 522.5 L 808 511.5 L 813 492.5 Q 818.3 478.3 829.5 470 Q 837.9 462.4 851.5 460 Z " /><path fill="rgb(1,65,37)" stroke="rgb(1,65,37)" stroke-width="1" opacity="0.9882352941176471" d="M 1286.5 460 L 1303.5 460 L 1307 462.5 L 1308 464.5 L 1308 586.5 L 1305.5 589 L 1285.5 589 L 1282 584.5 L 1282 464.5 L 1286.5 460 Z " /><path fill="rgb(1,65,37)" stroke="rgb(1,65,37)" stroke-width="1" opacity="0.9882352941176471" d="M 1095.5 471 L 1112.5 471 L 1116 474.5 L 1116 496 L 1132.5 496 Q 1137.9 500.1 1136 511.5 L 1135 515 L 1132.5 516 L 1116 516 L 1116 559.5 Q 1117.3 565.3 1121.5 568 L 1127.5 568 L 1133.5 566 L 1136 569.5 L 1136 583.5 L 1132.5 588 Q 1125.3 592.8 1111.5 591 Q 1101.3 589.3 1096 582.5 L 1092 574.5 L 1091 561.5 L 1090 560.5 L 1090 516 L 1081.5 516 L 1079 513.5 L 1079 498.5 L 1081.5 496 L 1090 496 L 1090 480.5 L 1091 475.5 L 1093.5 472 L 1095.5 471 Z " /><path fill="rgb(1,65,37)" stroke="rgb(1,65,37)" stroke-width="1" opacity="0.9882352941176471" d="M 758.5 494 L 766.5 494 L 775.5 496 L 788 503 L 795 512.5 L 799 522.5 L 800 527.5 L 800 548.5 L 797.5 551 L 748 551 Q 747.6 563 755.5 568 Q 758.8 571.2 766.5 570 L 773.5 567 Q 775.7 562.3 781.5 561 L 795.5 565 L 798 567.5 Q 796.7 579.2 788.5 584 L 773.5 591 L 763.5 592 L 762.5 591 L 750.5 590 L 741.5 586 L 729 574.5 L 722 556.5 L 721 536.5 L 725 518.5 L 731 508.5 L 736.5 503 L 746.5 497 L 758.5 494 Z M 760 515 L 755 517 L 750 523 L 748 530 Q 747 534 749 534 L 775 534 Q 776 526 773 521 Q 771 513 760 515 Z " /><path fill="rgb(1,65,37)" stroke="rgb(1,65,37)" stroke-width="1" opacity="0.9882352941176471" d="M 947.5 494 Q 969.8 493.7 980 505.5 Q 987.9 513.6 991 526.5 Q 989.8 531.2 992 532.5 L 992 553.5 L 989 565.5 L 985 573.5 L 975.5 584 Q 964.7 593.7 941.5 591 Q 926.9 587.6 919 577.5 L 911 561.5 L 909 541.5 L 910 540.5 L 910 531.5 L 913 520.5 Q 917.4 508.9 926.5 502 L 937.5 496 L 947.5 494 Z M 948 517 L 941 520 L 937 528 L 935 539 L 936 555 L 940 565 L 948 569 L 958 568 L 963 563 L 966 554 L 966 534 L 961 522 Q 958 516 948 517 Z " /><path fill="rgb(1,65,37)" stroke="rgb(1,65,37)" stroke-width="1" opacity="0.9882352941176471" d="M 1044.5 494 Q 1060.3 493.2 1067 501.5 L 1073 510.5 L 1075 520.5 L 1075 584.5 L 1071.5 589 L 1052.5 589 L 1049 585.5 L 1049 528.5 Q 1048.1 521.9 1043.5 519 L 1035.5 518 L 1028 523.5 L 1026 529.5 L 1026 585.5 L 1023.5 589 L 1003.5 589 L 1001 588 L 1000 585.5 L 1000 499.5 L 1003.5 496 L 1020.5 496 L 1023 498.5 L 1023.5 506 L 1026.5 502 L 1036.5 496 L 1044.5 494 Z " /><path fill="rgb(1,65,37)" stroke="rgb(1,65,37)" stroke-width="1" opacity="0.9882352941176471" d="M 1183.5 494 L 1192.5 495 L 1195 497.5 L 1195 506.5 L 1192 517.5 L 1189.5 521 Q 1176.3 518.8 1172 525.5 L 1169 533.5 L 1169 585.5 L 1168 588 L 1165.5 589 L 1146.5 589 L 1144 588 L 1143 585.5 L 1143 499.5 L 1144 497 L 1146.5 496 L 1163.5 496 Q 1167.2 498.8 1166.5 506 L 1174.5 497 L 1183.5 494 Z " /><path fill="rgb(1,65,37)" stroke="rgb(1,65,37)" stroke-width="1" opacity="0.9882352941176471" d="M 1230.5 494 L 1248.5 496 Q 1258.6 499.9 1265 507.5 Q 1278.2 522.8 1275 554.5 Q 1271.5 574 1258.5 584 Q 1252.1 589.1 1242.5 591 L 1226.5 591 Q 1210.3 587.2 1202 575.5 L 1197 566.5 L 1194 554.5 L 1194 531.5 Q 1197.5 512 1210.5 502 L 1221.5 496 L 1230.5 494 Z M 1231 517 L 1227 519 L 1221 527 L 1219 535 L 1220 557 L 1224 565 L 1231 569 Q 1239 570 1243 567 L 1248 560 L 1250 551 L 1249 531 L 1244 521 Q 1241 515 1231 517 Z " /><path fill="rgb(1,65,37)" stroke="rgb(1,65,37)" stroke-width="1" opacity="0.9882352941176471" d="M 1356.5 494 L 1359.5 495 L 1361.5 495 L 1366.5 495 L 1373.5 497 L 1385 505.5 L 1391 517.5 L 1393 535.5 L 1392 539.5 L 1393 540.5 L 1393 551.5 L 1392 554.5 L 1393 557.5 L 1393 585.5 L 1389.5 589 L 1372.5 589 L 1370 588 L 1367.5 580 Q 1362.6 586.6 1354.5 590 L 1338.5 591 L 1324 584 L 1317 570.5 L 1317 557.5 Q 1319.4 546.4 1327.5 541 L 1342.5 534 L 1367 532.5 L 1366 528.5 L 1366 526.5 Q 1366.6 518.4 1361.5 516 L 1354.5 515 L 1348 519.5 Q 1347.8 524.3 1344.5 526 L 1325.5 525 L 1322 521.5 L 1324 512.5 L 1332.5 502 L 1341.5 497 L 1356.5 494 Z M 1359 548 L 1348 551 L 1343 556 L 1342 560 L 1343 566 L 1351 571 Q 1358 572 1362 568 L 1366 562 L 1367 557 Q 1369 551 1366 550 L 1366 548 L 1359 548 Z " /><path fill="rgb(1,65,37)" stroke="rgb(1,65,37)" stroke-width="1" opacity="0.9882352941176471" d="M 325.5 508 L 332.5 508 L 340.5 510 L 353 520.5 Q 358.3 526.7 358 538.5 L 356 543 L 348.5 545 L 342 541.5 L 340 531.5 L 335.5 526 L 326.5 525 L 322 528.5 Q 318.3 532.8 318 540.5 L 314.5 544 L 310.5 545 L 306.5 544 L 302 539.5 Q 301.9 520.4 313.5 513 L 325.5 508 Z " /><path fill="rgb(1,65,37)" stroke="rgb(1,65,37)" stroke-width="1" opacity="0.9882352941176471" d="M 441.5 508 Q 458.9 508.1 466 518.5 Q 472.2 525.8 473 538.5 L 468.5 544 Q 458.3 546.3 456 540.5 L 454 530.5 L 448.5 525 Q 438.8 523.3 436 528.5 Q 432.5 533 432 540.5 L 428.5 544 Q 419.8 545.7 417 541.5 L 416 532.5 Q 418.3 521.3 425.5 515 L 433.5 510 L 441.5 508 Z " /><path fill="rgb(1,65,37)" stroke="rgb(1,65,37)" stroke-width="1" opacity="0.9882352941176471" d="M 527.5 558 L 535.5 558 L 544 563.5 L 547 569.5 L 547 577.5 L 541.5 585 Q 538 588.5 530.5 588 Q 522.4 586.6 519 580.5 Q 516.3 577.2 517 570.5 Q 518.5 563.6 523.5 560 L 527.5 558 Z " /><path fill="rgb(1,65,37)" stroke="rgb(1,65,37)" stroke-width="1" opacity="0.9882352941176471" d="M 338.5 575 Q 346.4 574.1 348 579.5 Q 350.8 591.8 358.5 599 L 374.5 608 Q 382.8 610.7 395.5 609 L 405.5 606 L 417 598 Q 423.3 590.9 426 579.5 L 429.5 576 L 435.5 575 L 441 578.5 L 442 587.5 Q 436.9 605.4 423.5 615 Q 414.5 622 401.5 625 L 396.5 626 L 376.5 626 Q 351.5 622 340 604.5 Q 332.7 596.3 332 581.5 L 334 577 L 338.5 575 Z " /><path fill="rgb(88,177,70)" stroke="rgb(88,177,70)" stroke-width="1" opacity="0.996078431372549" d="M 411.5 274 L 436.5 275 L 446.5 277 L 460.5 282 Q 481.3 291.3 495 307.5 Q 508.2 322.8 515 344.5 L 518 359.5 L 518 381.5 L 515 397.5 L 511 408.5 Q 505.1 422.6 495.5 433 L 430.5 433 L 430 432.5 L 430 421.5 L 431.5 420 L 444.5 417 L 455 408.5 L 460 397.5 L 460 387.5 Q 457.4 375.6 448.5 370 L 438.5 365 L 412.5 358 L 405 352.5 L 404 345.5 L 408.5 340 L 415.5 338 L 424.5 338 Q 425.8 340.3 430.5 339 L 437 343.5 L 439 349.5 L 441.5 352 L 450.5 353 L 456 348.5 L 457 340.5 Q 454.1 332.4 447.5 328 Q 440.6 322.7 430 322 Q 432.1 310.3 424.5 307 L 419.5 306 L 413 309.5 Q 409.5 313.7 411 322 Q 396.5 323.8 390 334.5 Q 384.2 341.2 386 355.5 Q 388.8 364.2 395.5 369 L 406.5 375 L 432.5 382 L 440 386.5 Q 442.7 388.8 442 394.5 L 438.5 400 L 433.5 403 L 418.5 404 Q 417 401.5 411.5 403 L 407.5 401 L 402 395.5 L 398.5 390 L 389.5 389 Q 383.3 391.8 384 401.5 Q 386.9 409.6 393.5 414 Q 401.1 419.8 413 420 L 413 432.5 L 412.5 433 L 344.5 433 Q 331.9 418.6 326 397.5 L 323 380.5 L 323 361.5 L 326 345.5 L 333 327.5 Q 343.1 308.1 359.5 295 L 380.5 282 L 394.5 277 L 411.5 274 Z " /><path fill="rgb(88,177,70)" stroke="rgb(88,177,70)" stroke-width="1" opacity="0.996078431372549" d="M 250.5 378 L 304.5 378 Q 305.5 378 305 382.5 L 309 405.5 L 316 424.5 L 321 432.5 L 240.5 433 Q 227.3 430.2 220 421.5 L 214 410.5 L 214 405.5 Q 218.4 395.4 226.5 389 L 242.5 380 L 250.5 378 Z M 298 422 L 297 423 L 249 424 Q 244 427 236 426 L 237 428 L 238 427 L 256 425 L 258 425 L 260 426 Q 263 424 271 425 L 272 424 L 301 424 L 304 423 L 302 426 Q 299 425 300 429 L 303 427 L 303 429 L 306 431 Q 310 430 312 432 L 318 431 L 314 422 L 301 422 L 300 423 L 298 422 Z M 299 426 L 297 429 L 299 429 L 299 426 Z M 259 427 L 257 430 L 259 429 L 259 427 Z M 267 428 Q 265 431 268 430 L 267 428 Z M 235 429 L 235 430 L 238 431 L 242 431 L 235 429 Z " /><path fill="rgb(88,177,70)" stroke="rgb(88,177,70)" stroke-width="1" opacity="0.996078431372549" d="M 523 424 Q 536.4 425.9 544 434.5 L 548 440.5 L 545.5 439 L 533.5 434 L 519 432.5 L 523 424 Z " /><path fill="rgb(88,177,70)" stroke="rgb(88,177,70)" stroke-width="1" opacity="0.996078431372549" d="M 206.5 431 L 213.5 439 L 226.5 447 L 238.5 450 L 383.5 450 Q 385.3 452.8 391.5 451 L 393.5 451 L 524.5 451 Q 539.3 454.3 547 464.5 L 554 478.5 Q 552.3 484.8 555 486.5 L 555 511.5 L 554 514.5 L 555 519.5 L 554 523.5 L 555 525.5 L 552.5 527 L 551.5 526 L 541.5 526 L 540.5 527 L 522.5 527 L 512.5 530 Q 501.8 534.8 495 543.5 L 487 558.5 L 485 568.5 L 485 579.5 Q 488.7 601.8 504.5 612 Q 512.5 617 523.5 619 L 555 619 L 555 652.5 L 554 656.5 Q 548.8 672.8 536.5 682 L 520.5 690 Q 512.6 692.6 500.5 691 L 499.5 692 L 498.5 691 L 480.5 691 L 478.5 691 L 467.5 692 L 465.5 692 L 463.5 691 L 442.5 691 L 440.5 691 L 244.5 691 Q 228.5 687 219 676.5 Q 211.1 668.9 208 656.5 Q 205.5 649 207 637.5 L 206 635.5 L 207 633.5 L 206 632.5 L 206 602.5 L 206 600.5 L 207 576.5 L 206 575.5 L 206 475.5 L 206 473.5 L 206.5 431 Z M 326 508 L 314 513 Q 302 520 302 540 L 307 544 L 311 545 L 315 544 L 318 541 Q 318 533 322 529 L 327 525 L 336 526 L 340 532 L 342 542 L 349 545 L 356 543 L 358 539 Q 358 527 353 521 L 341 510 L 333 508 L 326 508 Z M 442 508 L 434 510 L 426 515 Q 418 521 416 533 L 417 542 Q 420 546 429 544 L 432 541 Q 432 533 436 529 Q 439 523 449 525 L 454 531 L 456 541 Q 458 546 469 544 L 473 539 Q 472 526 466 519 Q 459 508 442 508 Z M 339 575 L 334 577 L 332 582 Q 333 596 340 605 Q 352 622 377 626 L 397 626 L 402 625 Q 415 622 424 615 Q 437 605 442 588 L 441 579 L 436 575 L 430 576 L 426 580 Q 423 591 417 598 L 406 606 L 396 609 Q 383 611 375 608 L 359 599 Q 351 592 348 580 Q 346 574 339 575 Z " /><path fill="rgb(88,177,70)" stroke="rgb(88,177,70)" stroke-width="1" opacity="0.996078431372549" d="M 526.5 544 L 572.5 544 L 576 546.5 L 577 548.5 L 577 595.5 L 573.5 600 L 571.5 601 L 522.5 601 L 510 594 L 504 584.5 Q 501.5 577 503 565.5 Q 505.4 555.4 512.5 550 L 526.5 544 Z M 528 558 L 524 560 Q 519 564 517 571 Q 516 577 519 581 Q 522 587 531 588 Q 538 589 542 585 L 547 578 L 547 570 L 544 564 L 536 558 L 528 558 Z " /></svg>